<?xml version="1.0" encoding="utf-8" standalone="no"?>
<!DOCTYPE svg PUBLIC "-//W3C//DTD SVG 1.1//EN"
  "http://www.w3.org/Graphics/SVG/1.1/DTD/svg11.dtd">
<svg xmlns:xlink="http://www.w3.org/1999/xlink" width="237.6pt" height="236.16pt" viewBox="0 0 237.6 236.16" xmlns="http://www.w3.org/2000/svg" version="1.1">
 <metadata>
  <rdf:RDF xmlns:dc="http://purl.org/dc/elements/1.1/" xmlns:cc="http://creativecommons.org/ns#" xmlns:rdf="http://www.w3.org/1999/02/22-rdf-syntax-ns#">
   <cc:Work>
    <dc:type rdf:resource="http://purl.org/dc/dcmitype/StillImage"/>
    <dc:date>2026-08-13T23:17:18.003521</dc:date>
    <dc:format>image/svg+xml</dc:format>
    <dc:creator>
     <cc:Agent>
      <dc:title>Matplotlib v3.6.0, https://matplotlib.org/</dc:title>
     </cc:Agent>
    </dc:creator>
   </cc:Work>
  </rdf:RDF>
 </metadata>
 <defs>
  <style type="text/css">*{stroke-linejoin: round; stroke-linecap: butt}</style>
 </defs>
 <g id="figure_1">
  <g id="patch_1">
   <path d="M 0 236.16 
L 237.6 236.16 
L 237.6 0 
L 0 0 
L 0 236.16 
z
" style="fill: none"/>
  </g>
  <g id="axes_1">
   <g id="patch_2">
    <path d="M 46.26 29.376 
L 191.34 29.376 
Q 208.08 29.376 208.08 46.008 
L 208.08 190.152 
Q 208.08 206.784 191.34 206.784 
L 46.26 206.784 
Q 29.52 206.784 29.52 190.152 
L 29.52 46.008 
Q 29.52 29.376 46.26 29.376 
L 46.26 29.376 
z
" clip-path="url(#pe29ca995e9)" style="fill: none; stroke: #05101a; stroke-width: 10; stroke-linejoin: miter"/>
   </g>
   <g id="line2d_1">
    <path d="M 63 162.432 
L 63 84.816 
L 118.8 140.256 
L 174.6 84.816 
L 174.6 162.432 
" clip-path="url(#pe29ca995e9)" style="fill: none; stroke: #6b563d; stroke-width: 16; stroke-linecap: round"/>
   </g>
   <g id="line2d_2">
    <path d="M 208.08 29.376 
L 230.4 29.376 
" clip-path="url(#pe29ca995e9)" style="fill: none; stroke: #6b563d; stroke-width: 4; stroke-linecap: round"/>
   </g>
   <g id="line2d_3">
    <path d="M 219.24 18.288 
L 219.24 40.464 
" clip-path="url(#pe29ca995e9)" style="fill: none; stroke: #6b563d; stroke-width: 4; stroke-linecap: round"/>
   </g>
  </g>
 </g>
 <defs>
  <clipPath id="pe29ca995e9">
   <rect x="7.2" y="7.2" width="223.2" height="221.76"/>
  </clipPath>
 </defs>
</svg>
